<svg width="640" height="463" viewBox="0 0 640 463" fill="none" xmlns="http://www.w3.org/2000/svg">
<g clipPath="url(#clip0_1365_2560)">
<path d="M592.954 416.192H515.092V461.112H592.954V416.192Z" fill="black"/>
<path d="M433.068 450.72C432.369 453.097 432.045 455.869 433.496 457.878C434.298 458.884 435.355 459.657 436.556 460.119C439.645 461.328 442.97 461.816 446.277 461.545C446.91 461.574 447.543 461.472 448.135 461.245C448.727 461.018 449.265 460.67 449.716 460.225C457.388 453.873 462.577 445.022 464.371 435.225C464.516 434.719 464.489 434.179 464.293 433.691C464.04 433.312 463.687 433.012 463.272 432.825C461.565 431.755 459.725 430.915 457.799 430.326C447.259 427.604 435.68 441.835 433.068 450.72Z" fill="#2F2E41"/>
<path d="M543.603 417.406C545.019 419.051 546.764 420.38 548.726 421.308C549.711 421.764 550.785 421.991 551.87 421.972C552.954 421.954 554.02 421.69 554.988 421.202C557.888 419.551 558.709 415.715 558.478 412.386C558.05 406.23 555.109 400.682 551.73 395.653C550.66 394.062 548.293 389.327 546.216 389.268C545.229 389.24 541.538 392.818 540.536 393.499C536.872 395.987 534.334 397.767 535.097 402.543C535.947 407.87 540.018 413.571 543.603 417.406Z" fill="#2F2E41"/>
<path d="M511.481 162.777C495.884 161.567 480.986 162.016 465.362 161.214C464.049 161.146 464.681 176.177 463.321 184.338C462.622 188.533 439.103 434.271 442.022 434.769C449.518 436.338 457.101 437.461 464.73 438.132C467.824 438.405 496.67 278.288 495.288 265.275C499.064 270.814 512.366 296.389 519.093 325.808C527.967 364.623 530.58 408.527 536.096 406.064C539.648 401.188 544.466 397.377 550.03 395.044C559.147 391.653 544.371 204.94 528.76 196.356C528.568 190.891 528.367 185.292 526.308 180.227C523.403 173.082 517.672 167.377 511.481 162.777Z" fill="#2F2E41"/>
<path d="M637.704 462.474H207.909V460.84H638L637.704 462.474Z" fill="#3F3D56"/>
<path d="M352.632 220.384H0V290.006H352.632V220.384Z" fill="#E6E6E6"/>
<path d="M352.632 110.373H0V179.995H352.632V110.373Z" fill="#E6E6E6"/>
<path d="M352.632 0H0V69.6221H352.632V0Z" fill="#E6E6E6"/>
<path d="M7.51733 62.1044H345.114V7.51758H7.51733V62.1044Z" fill="white"/>
<path d="M7.51733 172.72H345.114V118.133H7.51733V172.72Z" fill="white"/>
<path d="M7.51733 282.488H345.114V227.901H7.51733V282.488Z" fill="white"/>
<path d="M37.0715 55.1553C48.5569 55.1553 57.8677 45.8445 57.8677 34.3591C57.8677 22.8736 48.5569 13.5629 37.0715 13.5629C25.5861 13.5629 16.2753 22.8736 16.2753 34.3591C16.2753 45.8445 25.5861 55.1553 37.0715 55.1553Z" fill="black"/>
<path d="M292.051 26.2213H86.8016V30.7422H292.051V26.2213Z" fill="black"/>
<path d="M292.051 37.9757H86.8016V42.4966H292.051V37.9757Z" fill="black"/>
<path d="M37.0715 166.432C48.5569 166.432 57.8677 157.121 57.8677 145.636C57.8677 134.151 48.5569 124.84 37.0715 124.84C25.5861 124.84 16.2753 134.151 16.2753 145.636C16.2753 157.121 25.5861 166.432 37.0715 166.432Z" fill="#CCCCCC"/>
<path d="M292.051 137.498H86.8016V142.019H292.051V137.498Z" fill="#CCCCCC"/>
<path d="M292.051 149.253H86.8016V153.774H292.051V149.253Z" fill="#CCCCCC"/>
<path d="M37.0715 276.443C48.5569 276.443 57.8677 267.132 57.8677 255.647C57.8677 244.161 48.5569 234.851 37.0715 234.851C25.5861 234.851 16.2753 244.161 16.2753 255.647C16.2753 267.132 25.5861 276.443 37.0715 276.443Z" fill="#CCCCCC"/>
<path d="M292.051 247.509H86.8016V252.03H292.051V247.509Z" fill="#CCCCCC"/>
<path d="M292.051 259.264H86.8016V263.784H292.051V259.264Z" fill="#CCCCCC"/>
<path d="M507.638 43.5842C499.543 29.9062 483.528 29.2688 483.528 29.2688C483.528 29.2688 467.922 27.2731 457.911 48.1048C448.58 67.5217 435.702 86.2691 455.838 90.8145L459.475 79.494L461.727 91.6573C464.594 91.8635 467.47 91.9126 470.343 91.8045C491.907 91.1083 512.443 92.0082 511.782 84.2701C510.903 73.9834 515.427 56.7451 507.638 43.5842Z" fill="#2F2E41"/>
<path d="M477.775 90.1865C477.814 91.7261 477.803 93.3498 477.037 94.6864C475.521 97.3361 471.818 97.7328 469.591 99.8212C467.249 102.017 466.984 105.582 466.873 108.791C466.756 112.145 466.657 115.61 467.881 118.736C468.631 120.457 469.579 122.086 470.706 123.588C472.065 125.548 473.438 127.499 474.823 129.442C475.562 130.536 476.386 131.57 477.288 132.535C479.768 135.062 483.17 136.46 486.566 137.458C488.761 138.102 491.131 138.604 493.308 137.904C494.749 137.342 496.077 136.525 497.229 135.493C498.912 134.286 500.407 132.837 501.666 131.192C503.495 128.54 504.001 125.22 504.38 122.02C505.5 112.56 505.936 103.031 505.684 93.5084C505.73 92.4707 505.544 91.4358 505.14 90.479C504.012 88.277 500.992 87.8069 499.4 85.9128C498.04 84.2934 497.984 81.9822 497.996 79.867L498.025 74.4824C498.073 74.0287 497.982 73.5712 497.764 73.1705C497.566 72.9546 497.328 72.7799 497.063 72.6562C496.798 72.5325 496.511 72.4624 496.219 72.4498C492.873 71.8945 489.48 71.6675 486.089 71.7721C483.34 71.8561 478.065 71.626 475.688 73.1571C473.53 74.5469 476.232 78.3855 476.731 80.5417C477.403 83.7133 477.753 86.9446 477.775 90.1865V90.1865Z" fill="#FFB8B8"/>
<path d="M484.085 80.9397C496.105 80.9397 505.85 71.1954 505.85 59.1753C505.85 47.1551 496.105 37.4108 484.085 37.4108C472.065 37.4108 462.321 47.1551 462.321 59.1753C462.321 71.1954 472.065 80.9397 484.085 80.9397Z" fill="#FFB8B8"/>
<path d="M479.156 106.245C467.923 70.647 462.005 120.647 454.923 134.299C454.989 143.712 455.244 169.746 457.445 179.614C465.997 217.947 508.347 214.938 521.082 182.609C527.866 165.387 512.817 122.707 513.327 102.792C494.677 83.8949 493.526 143.846 479.156 106.245Z" fill="black"/>
<path d="M466.825 94.0343C442.485 105.864 454.097 137.648 445.275 158.449C438.228 186.987 420.308 195.961 461.281 196.626C470.109 170.54 461.486 142.206 473.523 115.644C474.352 105.241 477.92 101.329 477.604 92.5196C475.244 88.8633 469.13 92.9016 466.825 94.0343Z" fill="#575A88"/>
<path d="M504.059 42.266L488.237 33.9775L466.387 37.3682L461.866 57.3352L473.12 56.9017L476.263 49.5663V56.7804L481.455 56.5813L484.47 44.9028L486.353 57.3352L504.813 56.9579L504.059 42.266Z" fill="#2F2E41"/>
<path d="M494.273 104.053C506.8 102.591 494.587 87.5461 504.53 87.8018C534.305 82.7937 543.213 101.235 531.89 126.975C521.51 147.592 558.228 176.553 537.715 188.089C530.435 190.761 520.011 199.167 512.896 195.507C501.474 166.797 501.061 133.995 494.273 104.053Z" fill="#575A88"/>
<path d="M529.142 186.014C524.78 188.1 521.329 191.417 518.409 195.271C517.791 196.087 518.62 197.609 520.473 197.584C522.196 197.561 523.226 195.351 524.949 195.327C525.476 199.934 526.43 204.482 527.799 208.912C531.237 205.893 533.296 201.642 535.266 197.512L539.16 189.347C540.59 186.35 542.02 183.351 543.308 180.29C543.659 179.574 543.875 178.801 543.947 178.007C544.117 172.74 538.924 172.708 536.684 176.005C534.234 179.61 533.472 183.943 529.142 186.014Z" fill="#FFB8B8"/>
<path d="M530.037 95.4606C533.367 98.9201 536.719 102.409 539.304 106.455C541.889 110.502 555.258 146.894 555.8 147.666C557.73 150.514 555.476 157.878 555.362 158.3C555.138 159.622 552.349 172.826 551.65 175.742C551.161 177.782 551.168 179.907 550.848 181.98C550.528 184.054 549.808 186.186 548.21 187.547C548.007 187.742 547.757 187.882 547.484 187.953C546.598 188.126 545.995 187.102 545.684 186.254C544.719 183.614 543.744 180.924 542.041 178.687C540.339 176.451 537.758 174.7 534.948 174.709C534.716 174.153 534.619 173.549 534.667 172.948C534.715 172.348 534.906 171.767 535.223 171.255C535.786 170.193 536.612 169.293 537.233 168.263C538.02 166.861 538.555 165.332 538.814 163.744C540.202 156.453 538.805 148.906 534.899 142.595C533.991 141.098 532.893 139.725 531.632 138.511C530.26 137.225 528.654 136.191 527.387 134.801C525.434 132.489 524.253 129.623 524.01 126.606C523.776 123.609 523.856 120.595 524.248 117.614C524.818 111.699 525.55 105.775 526.395 99.8931C526.46 99.1269 526.659 98.3779 526.981 97.6799C527.645 96.4427 528.767 96.0576 530.037 95.4606Z" fill="#575A88"/>
<path d="M457.372 177.186C455.132 173.89 449.939 173.922 450.109 179.189C450.18 179.983 450.397 180.756 450.747 181.472C452.036 184.533 453.466 187.531 454.896 190.529L458.79 198.693C460.759 202.824 462.818 207.074 466.257 210.094C467.625 205.664 468.579 201.116 469.106 196.509C470.83 196.532 471.859 198.742 473.583 198.766C475.435 198.79 476.264 197.269 475.646 196.453C472.726 192.599 469.276 189.282 464.914 187.195C460.584 185.125 459.821 180.792 457.372 177.186Z" fill="#FFB8B8"/>
<path d="M467.074 98.8617C467.397 99.5597 467.595 100.309 467.661 101.075C468.506 106.957 469.238 112.881 469.808 118.796C470.2 121.777 470.28 124.79 470.046 127.788C469.803 130.805 468.622 133.671 466.668 135.983C465.401 137.373 463.796 138.407 462.423 139.693C461.162 140.907 460.064 142.28 459.156 143.777C455.25 150.088 453.853 157.635 455.241 164.926C455.5 166.513 456.036 168.043 456.822 169.445C457.444 170.474 458.269 171.375 458.832 172.437C459.15 172.949 459.34 173.529 459.388 174.13C459.436 174.731 459.34 175.334 459.108 175.89C456.297 175.882 453.717 177.633 452.014 179.869C450.312 182.105 449.337 184.796 448.371 187.436C448.061 188.283 447.457 189.308 446.571 189.135C446.299 189.064 446.049 188.924 445.845 188.729C444.248 187.368 443.528 185.236 443.208 183.162C442.888 181.089 442.894 178.964 442.405 176.924C441.706 174.008 438.917 160.804 438.694 159.481C438.58 159.06 436.325 151.696 438.256 148.848C438.798 148.076 452.167 111.684 454.751 107.637C457.336 103.591 460.689 100.102 464.018 96.6423C465.289 97.2393 466.411 97.6245 467.074 98.8617Z" fill="#575A88"/>
</g>
<defs>
<clipPath id="clip0_1365_2560">
<rect width="638" height="462.473" fill="white"/>
</clipPath>
</defs>
</svg>
